<?xml version="1.0" encoding="UTF-8" standalone="no"?>
<!-- Created with Inkscape (http://www.inkscape.org/) -->

<svg
   xmlns:dc="http://purl.org/dc/elements/1.1/"
   xmlns:cc="http://creativecommons.org/ns#"
   xmlns:rdf="http://www.w3.org/1999/02/22-rdf-syntax-ns#"
   xmlns:svg="http://www.w3.org/2000/svg"
   xmlns="http://www.w3.org/2000/svg"
   xmlns:sodipodi="http://sodipodi.sourceforge.net/DTD/sodipodi-0.dtd"
   xmlns:inkscape="http://www.inkscape.org/namespaces/inkscape"
   width="2298.6399"
   height="520"
   id="svg19051"
   version="1.1"
   inkscape:version="0.48.4 r9939"
   sodipodi:docname="GroupM-Logo.svg">
  <defs
     id="defs19053" />
  <sodipodi:namedview
     id="base"
     pagecolor="#ffffff"
     bordercolor="#666666"
     borderopacity="1.0"
     inkscape:pageopacity="0.0"
     inkscape:pageshadow="2"
     inkscape:zoom="0.68023133"
     inkscape:cx="1149.3199"
     inkscape:cy="260"
     inkscape:document-units="px"
     inkscape:current-layer="layer1"
     showgrid="false"
     fit-margin-top="0"
     fit-margin-left="0"
     fit-margin-right="0"
     fit-margin-bottom="0"
     inkscape:window-width="1680"
     inkscape:window-height="990"
     inkscape:window-x="-4"
     inkscape:window-y="-4"
     inkscape:window-maximized="1" />
  <metadata
     id="metadata19056">
    <rdf:RDF>
      <cc:Work
         rdf:about="">
        <dc:format>image/svg+xml</dc:format>
        <dc:type
           rdf:resource="http://purl.org/dc/dcmitype/StillImage" />
        <dc:title></dc:title>
      </cc:Work>
    </rdf:RDF>
  </metadata>
  <g
     inkscape:label="Ebene 1"
     inkscape:groupmode="layer"
     id="layer1"
     transform="translate(-248.85385,11.605071)">
    <g
       id="g12604"
       transform="matrix(41.882698,0,0,-41.882698,1738.0267,279.59972)">
      <path
         inkscape:connector-curvature="0"
         d="m 0,0 c -1.188,0 -1.458,1.121 -1.458,2.143 0,1.039 0.27,2.161 1.458,2.161 1.188,0 1.457,-1.122 1.457,-2.161 C 1.457,1.121 1.188,0 0,0 m -17.205,-0.001 c -1.257,0 -1.424,1.24 -1.424,2.16 0,0.921 0.167,2.145 1.424,2.145 1.255,0 1.422,-1.224 1.422,-2.145 0,-0.92 -0.167,-2.16 -1.422,-2.16 m -13.306,0.453 c -1.189,0 -1.49,1.139 -1.49,2.126 0,0.921 0.468,1.726 1.405,1.726 0.972,0 1.44,-0.755 1.44,-1.709 0,-0.971 -0.133,-2.143 -1.355,-2.143 M 1.122,6.714 c -1.624,0 -2.126,-0.618 -2.544,-1.172 l -0.036,0 0,0.955 -3.196,0 0,-10e-4 -2.891,0 0,-4.588 c 0,-1.388 -0.753,-1.674 -1.323,-1.674 -0.971,0 -1.089,0.704 -1.089,1.707 l 0,4.555 -3.315,0 0,-1.581 c -0.749,1.076 -2.04,1.799 -3.933,1.799 -1.069,0 -1.946,-0.232 -2.642,-0.625 l 0,0.491 c -0.319,0.084 -0.636,0.134 -0.971,0.134 -1.206,0 -1.909,-0.569 -2.444,-1.608 l -0.035,0 0,1.39 -2.627,0 -0.554,0 -2.761,0 0,-1.055 -0.033,0 c -0.387,0.888 -1.307,1.273 -2.277,1.273 -2.479,0 -3.768,-1.894 -3.768,-4.153 0,-2.327 1.155,-4.236 3.717,-4.236 0.987,0 1.791,0.435 2.328,1.207 l 0.033,0 0,-0.805 c 0,-0.72 -0.235,-1.993 -1.306,-1.993 -0.419,0 -0.77,0.335 -0.971,0.637 -0.067,0.101 -0.151,0.219 -0.184,0.302 l -3.282,0 c 0.302,-2.344 2.479,-2.897 4.538,-2.897 3.234,0 4.181,1.535 4.435,3.031 l 2.847,0 0,3.432 c 0,1.585 0.513,2.376 1.475,2.574 -0.173,-0.518 -0.258,-1.079 -0.258,-1.654 0,-2.41 1.474,-4.569 4.74,-4.569 2.002,0 3.33,0.813 4.058,1.998 0.377,-1.348 1.57,-1.998 2.855,-1.998 1.323,0 2.211,0.451 2.83,1.322 l 0.033,0 0,-1.105 2.775,0 0,-2.813 3.315,0 0,3.768 0.033,0 c 0.502,-0.737 1.389,-1.172 2.377,-1.172 2.913,0 3.7,2.477 3.7,4.519 0,2.177 -1.188,4.605 -3.649,4.605"
         style="fill:#7c7b7b;fill-opacity:1;fill-rule:nonzero;stroke:none"
         id="path12606" />
    </g>
    <g
       id="g12608"
       transform="matrix(41.882698,0,0,-41.882698,1935.8471,7.4834721)"
       style="fill:#00549d;fill-opacity:1">
      <path
         inkscape:connector-curvature="0"
         d="m 0,0 3.197,0 0,-1.155 0.034,0 c 0.669,1.004 1.641,1.372 2.846,1.372 0.938,0 1.943,-0.486 2.344,-1.356 0.135,0.102 0.804,1.356 2.963,1.356 2.227,0 2.981,-1.54 2.981,-2.946 l 0,-5.961 -3.316,0 0,4.705 c 0,0.819 -0.083,1.556 -1.088,1.556 -0.837,0 -1.122,-0.652 -1.122,-1.556 l 0,-4.705 -3.314,0 0,4.705 c 0,0.819 -0.084,1.556 -1.089,1.556 -0.835,0 -1.121,-0.652 -1.121,-1.556 l 0,-4.705 L 0,-8.69 0,0 z"
         style="fill:#00549d;fill-opacity:1;fill-rule:nonzero;stroke:none"
         id="path12610" />
    </g>
  </g>
</svg>
